<?xml version="1.0" encoding="utf-8"?>
<!-- Generator: Adobe Illustrator 22.0.0, SVG Export Plug-In . SVG Version: 6.00 Build 0)  -->
<svg version="1.1" id="Layer_1" xmlns="http://www.w3.org/2000/svg" xmlns:xlink="http://www.w3.org/1999/xlink" x="0px" y="0px"
	 viewBox="0 0 570 390" style="enable-background:new 0 0 570 390;" xml:space="preserve">
<style type="text/css">
	.st0{fill:url(#Path_4271_1_);}
	.st1{fill:#F2F2F2;}
	.st2{fill:#472A6A;}
	.st3{fill:#8B5DD0;}
	.st4{fill:#B984F9;}
	.st5{fill:#E4C4FF;}
	.st6{fill:#E1DDE7;}
	.st7{fill:#5C407B;}
	.st8{opacity:0.28;fill:#472A6A;}
	.st9{fill:#EA94AD;}
	.st10{fill:#FFB3C5;}
	.st11{fill:#31DAE7;}
	.st12{opacity:0.53;fill:#EA94AD;}
	.st13{fill:#8792CE;}
	.st14{fill:#EAE9F3;}
	.st15{fill:#BADCFF;}
	.st16{fill:#F36B80;}
	.st17{opacity:0.66;fill:#31DAE7;}
	.st18{opacity:0.44;fill:#E25A74;}
	.st19{fill:#E25A74;}
	.st20{fill:#8088C2;}
	.st21{fill:#FFFFFF;}
	.st22{opacity:0.5;fill:#E1DDE7;}
</style>
<g id="Group_4522" transform="translate(-216 -92.291)">
	
		<linearGradient id="Path_4271_1_" gradientUnits="userSpaceOnUse" x1="-456.315" y1="798.4766" x2="-456.331" y2="799.4766" gradientTransform="matrix(569.9988 0 0 -390.0005 260601.4375 311890.2188)">
		<stop  offset="0" style="stop-color:#FFFFFF;stop-opacity:0"/>
		<stop  offset="1" style="stop-color:#FFECD9"/>
	</linearGradient>
	<path id="Path_4271" class="st0" d="M238.5,483.7c0,0-52.4-101.6,2.9-189.5c238.8-379.6,589.8-132.5,484.8,30.4
		c-43.3,67.2,93,81.7,52.1,159.3L238.5,483.7z"/>
</g>
<g>
	<path class="st1" d="M454.4,317.6H121.6c-5.8,0-10.4-4.4-10.4-9.7L104.8,80c0-5.4,4.7-9.7,10.4-9.7h348.6c5.8,0,10.4,4.4,10.4,9.7
		l-9.5,227.8C464.8,313.2,460.1,317.6,454.4,317.6z"/>
	<path class="st2" d="M470.2,72.3c1.1,1.5,1.8,3.4,1.8,5.4l-9.5,227.8c0,5.4-4.7,9.7-10.4,9.7H119.3c-2.4,0-4.6-0.8-6.4-2
		c1.9,2.6,5.1,4.3,8.7,4.3h332.8c5.8,0,10.4-4.4,10.4-9.7L474.3,80C474.3,76.9,472.7,74.1,470.2,72.3z"/>
	<path class="st3" d="M125.6,290.9l-6.3-204.2c0-5.4,4.7-9.7,10.4-9.7H453c5.8,0,10.4,4.4,10.4,9.7L454,290.9
		c0,5.4-4.7,9.7-10.4,9.7H136C130.3,300.7,125.6,296.3,125.6,290.9z"/>
	<path class="st4" d="M125.1,295.9l-6.3-204.2c0-5.4,4.7-9.7,10.4-9.7h323.3c5.8,0,10.4,4.4,10.4,9.7l-9.5,204.2
		c0,5.4-4.7,9.7-10.4,9.7H135.5C129.8,305.7,125.1,301.3,125.1,295.9z"/>
	<g>
		<path class="st5" d="M441.3,293.3h-5.8c-0.2,0-0.3-0.1-0.3-0.3c0-0.2,0.1-0.3,0.3-0.3h5.2l0.1-1.8c0-0.2,0.2-0.3,0.3-0.3
			c0.2,0,0.3,0.2,0.3,0.3L441.3,293.3z M427.8,293.3h-7.6c-0.2,0-0.3-0.1-0.3-0.3c0-0.2,0.1-0.3,0.3-0.3h7.6c0.2,0,0.3,0.1,0.3,0.3
			C428.2,293.2,428,293.3,427.8,293.3z M412.7,293.3h-7.6c-0.2,0-0.3-0.1-0.3-0.3c0-0.2,0.1-0.3,0.3-0.3h7.6c0.2,0,0.3,0.1,0.3,0.3
			C413,293.2,412.8,293.3,412.7,293.3z M397.5,293.3h-7.6c-0.2,0-0.3-0.1-0.3-0.3c0-0.2,0.1-0.3,0.3-0.3h7.6c0.2,0,0.3,0.1,0.3,0.3
			C397.8,293.2,397.7,293.3,397.5,293.3z M382.3,293.3h-7.6c-0.2,0-0.3-0.1-0.3-0.3c0-0.2,0.1-0.3,0.3-0.3h7.6
			c0.2,0,0.3,0.1,0.3,0.3C382.6,293.2,382.5,293.3,382.3,293.3z M367.1,293.3h-7.6c-0.2,0-0.3-0.1-0.3-0.3c0-0.2,0.1-0.3,0.3-0.3
			h7.6c0.2,0,0.3,0.1,0.3,0.3C367.4,293.2,367.3,293.3,367.1,293.3z M351.9,293.3h-7.6c-0.2,0-0.3-0.1-0.3-0.3
			c0-0.2,0.1-0.3,0.3-0.3h7.6c0.2,0,0.3,0.1,0.3,0.3C352.2,293.2,352.1,293.3,351.9,293.3z M336.7,293.3h-7.6
			c-0.2,0-0.3-0.1-0.3-0.3c0-0.2,0.1-0.3,0.3-0.3h7.6c0.2,0,0.3,0.1,0.3,0.3C337,293.2,336.9,293.3,336.7,293.3z M321.5,293.3H314
			c-0.2,0-0.3-0.1-0.3-0.3c0-0.2,0.1-0.3,0.3-0.3h7.6c0.2,0,0.3,0.1,0.3,0.3C321.9,293.2,321.7,293.3,321.5,293.3z M306.4,293.3
			h-7.6c-0.2,0-0.3-0.1-0.3-0.3c0-0.2,0.1-0.3,0.3-0.3h7.6c0.2,0,0.3,0.1,0.3,0.3C306.7,293.2,306.5,293.3,306.4,293.3z
			 M291.2,293.3h-7.6c-0.2,0-0.3-0.1-0.3-0.3c0-0.2,0.1-0.3,0.3-0.3h7.6c0.2,0,0.3,0.1,0.3,0.3C291.5,293.2,291.4,293.3,291.2,293.3
			z M276,293.3h-7.6c-0.2,0-0.3-0.1-0.3-0.3c0-0.2,0.1-0.3,0.3-0.3h7.6c0.2,0,0.3,0.1,0.3,0.3C276.3,293.2,276.2,293.3,276,293.3z
			 M260.8,293.3h-7.6c-0.2,0-0.3-0.1-0.3-0.3c0-0.2,0.1-0.3,0.3-0.3h7.6c0.2,0,0.3,0.1,0.3,0.3C261.1,293.2,261,293.3,260.8,293.3z
			 M245.6,293.3H238c-0.2,0-0.3-0.1-0.3-0.3c0-0.2,0.1-0.3,0.3-0.3h7.6c0.2,0,0.3,0.1,0.3,0.3C245.9,293.2,245.8,293.3,245.6,293.3z
			 M230.4,293.3h-7.6c-0.2,0-0.3-0.1-0.3-0.3c0-0.2,0.1-0.3,0.3-0.3h7.6c0.2,0,0.3,0.1,0.3,0.3C230.8,293.2,230.6,293.3,230.4,293.3
			z M215.2,293.3h-7.6c-0.2,0-0.3-0.1-0.3-0.3c0-0.2,0.1-0.3,0.3-0.3h7.6c0.2,0,0.3,0.1,0.3,0.3
			C215.6,293.2,215.4,293.3,215.2,293.3z M200.1,293.3h-7.6c-0.2,0-0.3-0.1-0.3-0.3c0-0.2,0.1-0.3,0.3-0.3h7.6
			c0.2,0,0.3,0.1,0.3,0.3C200.4,293.2,200.2,293.3,200.1,293.3z M184.9,293.3h-7.6c-0.2,0-0.3-0.1-0.3-0.3c0-0.2,0.1-0.3,0.3-0.3
			h7.6c0.2,0,0.3,0.1,0.3,0.3C185.2,293.2,185.1,293.3,184.9,293.3z M169.7,293.3h-7.6c-0.2,0-0.3-0.1-0.3-0.3
			c0-0.2,0.1-0.3,0.3-0.3h7.6c0.2,0,0.3,0.1,0.3,0.3C170,293.2,169.9,293.3,169.7,293.3z M154.5,293.3h-7.6c-0.2,0-0.3-0.1-0.3-0.3
			c0-0.2,0.1-0.3,0.3-0.3h7.6c0.2,0,0.3,0.1,0.3,0.3C154.8,293.2,154.7,293.3,154.5,293.3z M139.3,293.3h-1.9l-0.2-7.9
			c0-0.2,0.1-0.3,0.3-0.3c0.2,0,0.3,0.1,0.3,0.3l0.2,7.3h1.3c0.2,0,0.3,0.1,0.3,0.3C139.6,293.2,139.5,293.3,139.3,293.3z
			 M441.4,283.7C441.4,283.7,441.4,283.7,441.4,283.7c-0.2,0-0.3-0.2-0.3-0.3l0.4-7.6c0-0.2,0.2-0.3,0.3-0.3c0.2,0,0.3,0.2,0.3,0.3
			l-0.4,7.6C441.7,283.6,441.6,283.7,441.4,283.7z M137.2,278.2c-0.2,0-0.3-0.1-0.3-0.3l-0.2-7.6c0-0.2,0.1-0.3,0.3-0.3
			c0.2,0,0.3,0.1,0.3,0.3l0.2,7.6C137.5,278,137.4,278.2,137.2,278.2C137.2,278.2,137.2,278.2,137.2,278.2z M442.1,268.5
			C442.1,268.5,442.1,268.5,442.1,268.5c-0.2,0-0.3-0.2-0.3-0.3l0.4-7.6c0-0.2,0.2-0.3,0.3-0.3c0.2,0,0.3,0.2,0.3,0.3l-0.4,7.6
			C442.4,268.4,442.3,268.5,442.1,268.5z M136.7,263c-0.2,0-0.3-0.1-0.3-0.3l-0.2-7.6c0-0.2,0.1-0.3,0.3-0.3c0.2,0,0.3,0.1,0.3,0.3
			l0.2,7.6C137.1,262.8,136.9,263,136.7,263C136.7,263,136.7,263,136.7,263z M442.8,253.3C442.8,253.3,442.8,253.3,442.8,253.3
			c-0.2,0-0.3-0.2-0.3-0.3l0.4-7.6c0-0.2,0.2-0.3,0.3-0.3c0.2,0,0.3,0.2,0.3,0.3l-0.4,7.6C443.1,253.2,443,253.3,442.8,253.3z
			 M136.3,247.8c-0.2,0-0.3-0.1-0.3-0.3l-0.2-7.6c0-0.2,0.1-0.3,0.3-0.3c0.2,0,0.3,0.1,0.3,0.3l0.2,7.6
			C136.6,247.6,136.5,247.8,136.3,247.8C136.3,247.8,136.3,247.8,136.3,247.8z M443.5,238.2C443.5,238.2,443.5,238.2,443.5,238.2
			c-0.2,0-0.3-0.2-0.3-0.3l0.4-7.6c0-0.2,0.1-0.3,0.3-0.3c0.2,0,0.3,0.2,0.3,0.3l-0.4,7.6C443.8,238,443.7,238.2,443.5,238.2z
			 M135.8,232.6c-0.2,0-0.3-0.1-0.3-0.3l-0.2-7.6c0-0.2,0.1-0.3,0.3-0.3c0.2,0,0.3,0.1,0.3,0.3l0.2,7.6
			C136.1,232.5,136,232.6,135.8,232.6C135.8,232.6,135.8,232.6,135.8,232.6z M444.2,223C444.2,223,444.2,223,444.2,223
			c-0.2,0-0.3-0.2-0.3-0.3l0.4-7.6c0-0.2,0.2-0.3,0.3-0.3c0.2,0,0.3,0.2,0.3,0.3l-0.4,7.6C444.5,222.9,444.4,223,444.2,223z
			 M135.3,217.4c-0.2,0-0.3-0.1-0.3-0.3l-0.2-7.6c0-0.2,0.1-0.3,0.3-0.3c0.2,0,0.3,0.1,0.3,0.3l0.2,7.6
			C135.6,217.3,135.5,217.4,135.3,217.4C135.3,217.4,135.3,217.4,135.3,217.4z M444.9,207.8C444.9,207.8,444.9,207.8,444.9,207.8
			c-0.2,0-0.3-0.2-0.3-0.3l0.4-7.6c0-0.2,0.2-0.3,0.3-0.3c0.2,0,0.3,0.2,0.3,0.3l-0.4,7.6C445.2,207.7,445.1,207.8,444.9,207.8z
			 M134.9,202.3c-0.2,0-0.3-0.1-0.3-0.3l-0.2-7.6c0-0.2,0.1-0.3,0.3-0.3c0.2,0,0.3,0.1,0.3,0.3l0.2,7.6
			C135.2,202.1,135,202.3,134.9,202.3C134.9,202.3,134.9,202.3,134.9,202.3z M445.6,192.7C445.6,192.7,445.6,192.7,445.6,192.7
			c-0.2,0-0.3-0.2-0.3-0.3l0.4-7.6c0-0.2,0.2-0.3,0.3-0.3c0.2,0,0.3,0.2,0.3,0.3l-0.4,7.6C446,192.5,445.8,192.7,445.6,192.7z
			 M134.4,187.1c-0.2,0-0.3-0.1-0.3-0.3l-0.2-7.6c0-0.2,0.1-0.3,0.3-0.3c0.2,0,0.3,0.1,0.3,0.3l0.2,7.6
			C134.7,186.9,134.6,187.1,134.4,187.1C134.4,187.1,134.4,187.1,134.4,187.1z M446.3,177.5C446.3,177.5,446.3,177.5,446.3,177.5
			c-0.2,0-0.3-0.2-0.3-0.3l0.4-7.6c0-0.2,0.2-0.3,0.3-0.3c0.2,0,0.3,0.2,0.3,0.3l-0.4,7.6C446.7,177.4,446.5,177.5,446.3,177.5z
			 M133.9,171.9c-0.2,0-0.3-0.1-0.3-0.3l-0.2-7.6c0-0.2,0.1-0.3,0.3-0.3c0.2,0,0.3,0.1,0.3,0.3l0.2,7.6
			C134.2,171.8,134.1,171.9,133.9,171.9C133.9,171.9,133.9,171.9,133.9,171.9z M447.1,162.3C447.1,162.3,447,162.3,447.1,162.3
			c-0.2,0-0.3-0.2-0.3-0.3l0.4-7.6c0-0.2,0.1-0.3,0.3-0.3c0.2,0,0.3,0.2,0.3,0.3l-0.4,7.6C447.4,162.2,447.2,162.3,447.1,162.3z
			 M133.4,156.7c-0.2,0-0.3-0.1-0.3-0.3l-0.2-7.6c0-0.2,0.1-0.3,0.3-0.3c0.2,0,0.3,0.1,0.3,0.3l0.2,7.6
			C133.8,156.6,133.6,156.7,133.4,156.7C133.5,156.7,133.4,156.7,133.4,156.7z M447.8,147.2C447.8,147.2,447.8,147.2,447.8,147.2
			c-0.2,0-0.3-0.2-0.3-0.3l0.4-7.6c0-0.2,0.2-0.3,0.3-0.3c0.2,0,0.3,0.2,0.3,0.3l-0.4,7.6C448.1,147,447.9,147.2,447.8,147.2z
			 M133,141.6c-0.2,0-0.3-0.1-0.3-0.3l-0.2-7.6c0-0.2,0.1-0.3,0.3-0.3c0.2,0,0.3,0.1,0.3,0.3l0.2,7.6
			C133.3,141.4,133.2,141.5,133,141.6C133,141.6,133,141.6,133,141.6z M448.5,132C448.5,132,448.5,132,448.5,132
			c-0.2,0-0.3-0.2-0.3-0.3l0.4-7.6c0-0.2,0.2-0.3,0.3-0.3c0.2,0,0.3,0.2,0.3,0.3l-0.4,7.6C448.8,131.9,448.6,132,448.5,132z
			 M132.5,126.4c-0.2,0-0.3-0.1-0.3-0.3l-0.2-7.6c0-0.2,0.1-0.3,0.3-0.3c0.2,0,0.3,0.1,0.3,0.3l0.2,7.6
			C132.8,126.2,132.7,126.4,132.5,126.4C132.5,126.4,132.5,126.4,132.5,126.4z M449.2,116.8C449.2,116.8,449.2,116.8,449.2,116.8
			c-0.2,0-0.3-0.2-0.3-0.3l0.4-7.6c0-0.2,0.2-0.3,0.3-0.3c0.2,0,0.3,0.2,0.3,0.3l-0.4,7.6C449.5,116.7,449.3,116.8,449.2,116.8z
			 M132,111.2c-0.2,0-0.3-0.1-0.3-0.3l-0.2-7.6c0-0.2,0.1-0.3,0.3-0.3c0.2,0,0.3,0.1,0.3,0.3l0.2,7.6
			C132.4,111,132.2,111.2,132,111.2C132,111.2,132,111.2,132,111.2z M449.9,101.7C449.9,101.7,449.9,101.7,449.9,101.7
			c-0.2,0-0.3-0.2-0.3-0.3l0.3-6.4h-0.5c-0.2,0-0.3-0.1-0.3-0.3c0-0.2,0.1-0.3,0.3-0.3h1.2l-0.3,7.1
			C450.2,101.5,450,101.7,449.9,101.7z M131.6,96c-0.2,0-0.3-0.1-0.3-0.3l0-1.4h6.8c0.2,0,0.3,0.1,0.3,0.3c0,0.2-0.1,0.3-0.3,0.3
			h-6.2l0,0.8C131.9,95.9,131.7,96,131.6,96C131.6,96,131.6,96,131.6,96z M441.7,94.9h-7.6c-0.2,0-0.3-0.1-0.3-0.3
			c0-0.2,0.1-0.3,0.3-0.3h7.6c0.2,0,0.3,0.1,0.3,0.3C442.1,94.8,441.9,94.9,441.7,94.9z M426.6,94.9H419c-0.2,0-0.3-0.1-0.3-0.3
			c0-0.2,0.1-0.3,0.3-0.3h7.6c0.2,0,0.3,0.1,0.3,0.3C426.9,94.8,426.7,94.9,426.6,94.9z M411.4,94.9h-7.6c-0.2,0-0.3-0.1-0.3-0.3
			c0-0.2,0.1-0.3,0.3-0.3h7.6c0.2,0,0.3,0.1,0.3,0.3C411.7,94.8,411.5,94.9,411.4,94.9z M396.2,94.9h-7.6c-0.2,0-0.3-0.1-0.3-0.3
			c0-0.2,0.1-0.3,0.3-0.3h7.6c0.2,0,0.3,0.1,0.3,0.3C396.5,94.8,396.4,94.9,396.2,94.9z M381,94.9h-7.6c-0.2,0-0.3-0.1-0.3-0.3
			c0-0.2,0.1-0.3,0.3-0.3h7.6c0.2,0,0.3,0.1,0.3,0.3C381.3,94.8,381.2,94.9,381,94.9z M365.8,94.9h-7.6c-0.2,0-0.3-0.1-0.3-0.3
			c0-0.2,0.1-0.3,0.3-0.3h7.6c0.2,0,0.3,0.1,0.3,0.3C366.1,94.8,366,94.9,365.8,94.9z M350.6,94.9H343c-0.2,0-0.3-0.1-0.3-0.3
			c0-0.2,0.1-0.3,0.3-0.3h7.6c0.2,0,0.3,0.1,0.3,0.3C350.9,94.8,350.8,94.9,350.6,94.9z M335.4,94.9h-7.6c-0.2,0-0.3-0.1-0.3-0.3
			c0-0.2,0.1-0.3,0.3-0.3h7.6c0.2,0,0.3,0.1,0.3,0.3C335.8,94.8,335.6,94.9,335.4,94.9z M320.3,94.9h-7.6c-0.2,0-0.3-0.1-0.3-0.3
			c0-0.2,0.1-0.3,0.3-0.3h7.6c0.2,0,0.3,0.1,0.3,0.3C320.6,94.8,320.4,94.9,320.3,94.9z M305.1,94.9h-7.6c-0.2,0-0.3-0.1-0.3-0.3
			c0-0.2,0.1-0.3,0.3-0.3h7.6c0.2,0,0.3,0.1,0.3,0.3C305.4,94.8,305.2,94.9,305.1,94.9z M289.9,94.9h-7.6c-0.2,0-0.3-0.1-0.3-0.3
			c0-0.2,0.1-0.3,0.3-0.3h7.6c0.2,0,0.3,0.1,0.3,0.3C290.2,94.8,290.1,94.9,289.9,94.9z M274.7,94.9h-7.6c-0.2,0-0.3-0.1-0.3-0.3
			c0-0.2,0.1-0.3,0.3-0.3h7.6c0.2,0,0.3,0.1,0.3,0.3C275,94.8,274.9,94.9,274.7,94.9z M259.5,94.9h-7.6c-0.2,0-0.3-0.1-0.3-0.3
			c0-0.2,0.1-0.3,0.3-0.3h7.6c0.2,0,0.3,0.1,0.3,0.3C259.8,94.8,259.7,94.9,259.5,94.9z M244.3,94.9h-7.6c-0.2,0-0.3-0.1-0.3-0.3
			c0-0.2,0.1-0.3,0.3-0.3h7.6c0.2,0,0.3,0.1,0.3,0.3C244.6,94.8,244.5,94.9,244.3,94.9z M229.1,94.9h-7.6c-0.2,0-0.3-0.1-0.3-0.3
			c0-0.2,0.1-0.3,0.3-0.3h7.6c0.2,0,0.3,0.1,0.3,0.3C229.5,94.8,229.3,94.9,229.1,94.9z M214,94.9h-7.6c-0.2,0-0.3-0.1-0.3-0.3
			c0-0.2,0.1-0.3,0.3-0.3h7.6c0.2,0,0.3,0.1,0.3,0.3C214.3,94.8,214.1,94.9,214,94.9z M198.8,94.9h-7.6c-0.2,0-0.3-0.1-0.3-0.3
			c0-0.2,0.1-0.3,0.3-0.3h7.6c0.2,0,0.3,0.1,0.3,0.3C199.1,94.8,198.9,94.9,198.8,94.9z M183.6,94.9H176c-0.2,0-0.3-0.1-0.3-0.3
			c0-0.2,0.1-0.3,0.3-0.3h7.6c0.2,0,0.3,0.1,0.3,0.3C183.9,94.8,183.8,94.9,183.6,94.9z M168.4,94.9h-7.6c-0.2,0-0.3-0.1-0.3-0.3
			c0-0.2,0.1-0.3,0.3-0.3h7.6c0.2,0,0.3,0.1,0.3,0.3C168.7,94.8,168.6,94.9,168.4,94.9z M153.2,94.9h-7.6c-0.2,0-0.3-0.1-0.3-0.3
			c0-0.2,0.1-0.3,0.3-0.3h7.6c0.2,0,0.3,0.1,0.3,0.3C153.5,94.8,153.4,94.9,153.2,94.9z"/>
	</g>
	<path class="st1" d="M280.7,126.2c0,0,4.5,45.6,2.6,61.1l-11.1,117.7H368c0,0-5.4-100.3-5.4-107.9c0-7.6-1.6-70.9-1.6-70.9l-15-7.6
		l-37.8-0.5L280.7,126.2z"/>
	<g>
		<path class="st6" d="M306.6,118.8l-18.9,5.3c0,0,7.6,37.8,12.1,42.3c4.5,4.5-0.8,7.9,3,11.7c3.8,3.8,24.8,32.3,24.8,32.3
			L306.6,118.8z"/>
		<path class="st6" d="M347,120.1l-19.3,90.4c0,0,20.5-36.3,22.3-38c1.8-1.8,0-9.2,0-12.7s10.9-33.7,10.9-33.7
			S350.9,120.1,347,120.1z"/>
	</g>
	<g>
		<path class="st1" d="M308.2,118.1l-20.2,2.1c0,0,7.3,37.2,11.8,41.8c4.5,4.5-0.8,7.9,3,11.7c3.8,3.8,24.8,36.9,24.8,36.9
			L308.2,118.1z"/>
		<path class="st1" d="M346,118.6l-18.3,91.9c0,0,20.5-40.8,22.3-42.6c1.8-1.8,0-9.2,0-12.7c0-3.5,11.1-32.3,11.1-32.3
			S349.9,118.6,346,118.6z"/>
	</g>
	<polygon class="st6" points="325,304.9 327.7,210.5 327.1,304.9 	"/>
	<rect x="263" y="317.6" class="st7" width="72.1" height="7.6"/>
	<polygon class="st7" points="328.9,360.3 269.1,360.3 267.2,325.2 330.8,325.2 	"/>
	<path class="st8" d="M330.8,325.2h-63.6l1.9,35.1h7.9c0.8-5.5,2.3-11.3,5.3-15.9c5.3-8.4,31.6-11.7,48.2-13L330.8,325.2z"/>
	<path class="st2" d="M382.9,379.2H220.3l0,0c0-10.5,8.5-19,19-19h124.6C374.4,360.3,382.9,368.8,382.9,379.2L382.9,379.2z"/>
	<path class="st9" d="M207.5,130.9l-5.5-19.8l-24.3,6.2c0,0,3.5,10.8,5.9,12.3c1.8,1.1,7.1,4.4,9.8,6l0,0l21.7,43.1l15.6-19.3
		L207.5,130.9z"/>
	<path class="st2" d="M322.3,20.2c0,0,18.5-2.3,26.4,1.5c7.9,3.8,23.4,19,19.3,48.6c0,0,3.3,1.1,4.3,5.6c0.9,4.5,1,12.6-6.8,20.1
		c-7.8,7.5-21,6.6-27.8,6.6s-25.9-5.7-30.8-16.3C301.9,75.7,322.3,20.2,322.3,20.2z"/>
	<path class="st2" d="M331.2,24.5c-5-0.5-9.1,1.8-12.4,5.6c-4.2,12.4-10.9,33.5-12.5,46.6c0.7,5.2,2.4,10.5,4.9,14.6
		c0.4,0.7,0.9,1.4,1.4,2.1c6.6,5.2,16.2,8.3,22.1,9.1c18.4-2.5,23.6-19.5,23.2-38.3c-0.1-5.1,3.5-20.8-4.3-31
		C348.4,26.2,339.3,23.7,331.2,24.5z"/>
	<path class="st10" d="M312.8,89.2c0,0,0.9,12.8,0,18.7c-0.9,5.9-4.6,10.3-4.6,10.3l19.5,92.4l18.3-91.9c0,0-4.6-2.8-5.9-10.8
		c-1.3-8-1.3-28.5-1.3-28.5L312.8,89.2z"/>
	<path class="st11" d="M327.7,210.5l14.3-71.5c-10.9,1.2-21.7-0.2-29.7-1.8L327.7,210.5z"/>
	<path class="st11" d="M341.9,139c-0.1,0-0.2,0-0.3,0c-3.6,14.6-11.7,47-14.5,49.8c-2.7,2.7-10.8-33-14.9-51.7c0,0,0,0,0,0
		l15.5,73.4L341.9,139z"/>
	<path class="st12" d="M316.9,87.6c2.8,10.9,9.6,21.1,22.5,17.7c0.2,0,0.3-0.1,0.5-0.1c-1-9.1-0.9-25.9-0.9-25.9L316.9,87.6z"/>
	<path class="st10" d="M334.8,27c0,0,11.2-1.7,17.4,7.3c6.2,9,3.3,24.2,3.3,28c0,3.8,1.8,31.3-16.1,35.6c-18,4.3-24-15.3-24-27.2
		S319.7,28.5,334.8,27z"/>
	<path class="st12" d="M322.4,37.6c-0.6,1.4-1.2,2.8-1.8,4.3c6.2-1.9,12.5-3.3,18.8-4.3c2.5,8.8,7.9,14.8,16.7,14.8
		c0.1-3.5-0.1-7.4-1-11.1C344.8,37.1,333.2,31,322.4,37.6z"/>
	<path class="st10" d="M203.9,112.4c-0.2-0.3-18.2-17.4-21.7-16.3c-5.9,1.5,7.2,11.3,8.7,13.2c0.7,0.9,1.3,2.1,1.9,3.2
		c-0.5,0.1-0.9,0.3-1.3,0.3c-3.4,0.8-12.4,2.5-13.7,4.6c0,0-0.2,11.8,2.9,11.9c3.1,0.1,6.3-1.1,9.6-0.7c1.7,0.2,3.4-0.7,4.7-1.5
		c0.2-0.1,0.4-0.3,0.6-0.4c-0.4,0.7-0.5,1.5-0.1,2.4c1.6,3.2,12.6-2.3,13.1-4.4C208.9,122.6,206.4,115.5,203.9,112.4z M201.4,123.1
		c-1,0.2-3,0.9-4.4,2c-0.4-1.1-2.5-6.8-2.2-9.1c0,0,0,0,0,0c1.5-1.6,4.9-1.7,6.5-1l0,0c0.2,0.2,0.4,0.5,0.5,0.8
		C202.2,118,203.4,122.6,201.4,123.1z"/>
	<path class="st1" d="M202.5,156.9c0,0,25.6,65.8,35.4,70.9c9.8,5.1,45.8-49.7,45.8-49.7s1.4-51.9-3-51.9
		c-4.4,0-22.6,21.7-27.9,34.7c-5.3,13.3-5.1,20-12.3,7.1c-7.3-13.2-20.2-30.8-20.2-30.8C213,144.5,202.5,156.9,202.5,156.9z"/>
	<path class="st2" d="M348.7,21.8c0,0-6.3-0.8-10.1,2.2c-3.8,3-12.2,4.4-17.1,27.7c-4.9,23.3-0.9,25.9-0.9,25.9s5.2,10.8-1.5,19
		c-6.7,8.2-19.9,5.1-27.3,0.8c-10.7-6.3-8.8-28.1-4.3-42.4c0.6-2,0.9-3.2,1.7-4.8c1.4-3.2,1.9-6.9,3.9-10.3
		c6.6-10.9,18.7-20.9,40.1-20.4C333.2,19.5,342.8,19,348.7,21.8z"/>
	<g>
		<path class="st2" d="M289.6,48.4c-1.3,4-1.1,3.4-2.2,6.6c-0.2,0.7-0.4,1.4-0.6,2.1c4.2-2.4,5-3.1,9.8-5.6
			c8.8-4.5,18.3-8.1,27.9-10.7c0.2-0.5,0.4-1,0.6-1.5C312.8,40.5,300.5,42.7,289.6,48.4z"/>
	</g>
	<path class="st11" d="M292.3,40.3c23.5-12.3,39.2-13.4,66.1-11.6v6.5c-22.6,0.1-44.9,6.2-63.7,15.8c-5,2.6-7.7,4.3-7.8,4.4
		L292.3,40.3z"/>
	<ellipse class="st13" cx="357.6" cy="32.7" rx="17.8" ry="19"/>
	<ellipse class="st14" cx="358.1" cy="32.7" rx="17.2" ry="19"/>
	<g>
		<ellipse class="st3" cx="357.6" cy="32.7" rx="17.8" ry="19"/>
		<ellipse class="st5" cx="358.1" cy="32.7" rx="17.2" ry="19"/>
		<path class="st1" d="M351.6,29.1c0-6.3,2.8-11.9,7.1-15.4c-0.2,0-0.3,0-0.5,0c-9.5,0-17.2,8.5-17.2,19c0,10.5,7.7,19,17.2,19
			c3.8,0,7.3-1.4,10.1-3.6C359,47.8,351.6,39.4,351.6,29.1z"/>
	</g>
	<path class="st3" d="M361,31.9c0,1.6-1.1,2.8-2.6,2.8s-2.6-1.3-2.6-2.8c0-1.6,1.1-2.8,2.6-2.8S361,30.3,361,31.9z"/>
	<g>
		<path class="st7" d="M159.1,118.9c-0.2,0-0.5-0.1-0.7-0.2c-0.5-0.4-0.7-1.1-0.3-1.7l45.1-65.3c0.4-0.5,1.1-0.7,1.7-0.3
			s0.7,1.1,0.3,1.7l-45.1,65.3C159.9,118.7,159.5,118.9,159.1,118.9z"/>
	</g>
	<g>
		<path class="st7" d="M81.8,201.3c-0.3,0-0.6-0.1-0.8-0.3c-0.5-0.4-0.5-1.2-0.1-1.7l74.8-80c0.4-0.5,1.2-0.5,1.7-0.1
			c0.5,0.4,0.5,1.2,0.1,1.7l-74.8,80C82.4,201.1,82.1,201.3,81.8,201.3z"/>
	</g>
	<g>
		<path class="st7" d="M156.6,121.3c-0.2,0-0.5-0.1-0.7-0.2L95.8,77.9c-0.5-0.4-0.7-1.1-0.3-1.7c0.4-0.5,1.1-0.7,1.7-0.3l60.2,43.1
			c0.5,0.4,0.7,1.1,0.3,1.7C157.4,121.1,157,121.3,156.6,121.3z"/>
	</g>
	<g>
		<path class="st7" d="M188.7,258.9c-0.5,0-1-0.4-1.2-0.9l-32.1-137.6c-0.1-0.6,0.2-1.3,0.9-1.4c0.6-0.1,1.3,0.2,1.4,0.9l32.1,137.6
			c0.1,0.6-0.2,1.3-0.9,1.4C188.9,258.9,188.8,258.9,188.7,258.9z"/>
	</g>
	<path class="st7" d="M170,120.1c0,7.4-6,13.4-13.4,13.4c-7.4,0-13.4-6-13.4-13.4c0-7.4,6-13.4,13.4-13.4
		C164,106.7,170,112.7,170,120.1z"/>
	<path class="st15" d="M165.1,119.4c0,4.7-3.8,8.5-8.5,8.5c-4.7,0-8.5-3.8-8.5-8.5c0-4.7,3.8-8.5,8.5-8.5
		C161.3,110.9,165.1,114.7,165.1,119.4z"/>
	<g>
		<path class="st1" d="M80.9,107.1H49.7c-10.5,0-19.1-8.5-19.1-19.1V65.9c0-10.5,8.5-19.1,19.1-19.1h31.2c10.5,0,19.1,8.5,19.1,19.1
			V88C100,98.5,91.4,107.1,80.9,107.1z"/>
		<path class="st7" d="M96.5,47.5c0.4,0.8,0.6,1.8,0.6,2.7v47.9c0,3.4-2.8,6.2-6.2,6.2H34c-1,0-1.9-0.2-2.7-0.6c1,2,3.1,3.4,5.5,3.4
			h57c3.4,0,6.2-2.8,6.2-6.2V53C100,50.6,98.6,48.5,96.5,47.5z"/>
	</g>
	<g>
		<path class="st1" d="M80.9,225.8H49.7c-10.5,0-19.1-8.5-19.1-19.1v-22.1c0-10.5,8.5-19.1,19.1-19.1h31.2
			c10.5,0,19.1,8.5,19.1,19.1v22.1C100,217.2,91.4,225.8,80.9,225.8z"/>
		<path class="st7" d="M96.5,166.1c0.4,0.8,0.6,1.8,0.6,2.7v47.9c0,3.4-2.8,6.2-6.2,6.2H34c-1,0-1.9-0.2-2.7-0.6
			c1,2,3.1,3.4,5.5,3.4h57c3.4,0,6.2-2.8,6.2-6.2v-47.9C100,169.2,98.6,167.1,96.5,166.1z"/>
	</g>
	<g>
		<path class="st1" d="M182.2,62.9h38.3c11.3,0,20.4-9.1,20.4-20.4V23c0-11.3-9.1-20.4-20.4-20.4h-38.3c-11.3,0-20.4,9.1-20.4,20.4
			v19.5C161.8,53.7,171,62.9,182.2,62.9z"/>
		<path class="st7" d="M165.8,3.2C165.3,4,165,5,165,6v47.9c0,3.4,3.2,6.2,7.1,6.2h65c1.1,0,2.2-0.2,3.1-0.6c-1.2,2-3.6,3.4-6.3,3.4
			h-65c-3.9,0-7.1-2.8-7.1-6.2V8.8C161.8,6.3,163.4,4.2,165.8,3.2z"/>
	</g>
	<g>
		<path class="st1" d="M173.9,237h38.3c11.3,0,20.4,9.1,20.4,20.4v19.5c0,11.3-9.1,20.4-20.4,20.4h-38.3c-11.3,0-20.4-9.1-20.4-20.4
			v-19.5C153.5,246.1,162.6,237,173.9,237z"/>
		<path class="st7" d="M157.4,296.6c-0.5-0.8-0.7-1.8-0.7-2.7V246c0-3.4,3.2-6.2,7.1-6.2h65c1.1,0,2.2,0.2,3.1,0.6
			c-1.2-2-3.6-3.4-6.3-3.4h-65c-3.9,0-7.1,2.8-7.1,6.2v47.9C153.5,293.5,155.1,295.6,157.4,296.6z"/>
	</g>
	<g>
		<path class="st3" d="M55.7,64.9c0,1.1-0.9,2-2,2c-1.1,0-2-0.9-2-2c0-1.1,0.9-2,2-2C54.8,62.8,55.7,63.8,55.7,64.9z"/>
		<path class="st3" d="M78.7,59.1c0,0.7-0.6,1.3-1.3,1.3c-0.7,0-1.3-0.6-1.3-1.3c0-0.7,0.6-1.3,1.3-1.3
			C78.1,57.8,78.7,58.4,78.7,59.1z"/>
		<path class="st3" d="M63.9,96c-9.8,0-17.8-8-17.8-17.8c0-4.4,1.6-8.7,4.6-11.9l0.4-0.5l0.3,0.6c0.2,0.3,0.5,0.7,0.8,0.9l0.5,0.3
			L52.4,68c-2.5,2.8-3.9,6.5-3.9,10.3c0,8.5,6.9,15.5,15.5,15.5c8.1,0,14.8-6.2,15.4-14.2c-3-0.6-5.2-3.2-5.2-6.3V61.8l1.4-2.1
			l0.4,0.5c0.2,0.3,0.6,0.5,0.9,0.6l0.6,0.2l-1,1.5v10.6c0,2.2,1.8,4,4,4c2.2,0,4-1.8,4-4V62.6L83.5,61l0.6-0.2
			c0.4-0.1,0.7-0.4,0.9-0.7l0.4-0.5l1.6,2.2v11.4c0,3.1-2.2,5.7-5.2,6.3C81.1,88.8,73.4,96,63.9,96z"/>
		<path class="st3" d="M84.8,59.1c0,0.7-0.6,1.3-1.3,1.3c-0.7,0-1.3-0.6-1.3-1.3c0-0.7,0.6-1.3,1.3-1.3
			C84.3,57.8,84.8,58.4,84.8,59.1z"/>
		<polygon class="st11" points="71.3,74.6 66.5,74.6 66.5,69.8 61.1,69.8 61.1,74.6 56.3,74.6 56.3,79.9 61.1,79.9 61.1,84.8 
			66.5,84.8 66.5,79.9 71.3,79.9 		"/>
	</g>
	<g>
		<g>
			<path class="st3" d="M213.3,33.6h-1.5l-3.2-4.4l-2.4,10l-1.9-17.3l-5,11.3l-2.2-4l-2.8,5l-3.8-4.7l-1.7,8.5l-1.6-14.6l-5.5,9.9
				h-13.2c-0.3,0-0.6,0.3-0.6,0.6l0,0c0,0.3,0.3,0.6,0.6,0.6H183l3-5.4l2.3,20.7l3.3-16.4l3.1,3.7l2.5-4.4l2.4,4.3l3.7-8.3l2.3,21
				l4-16.5l1.2,1.6h3.5C213.8,34.4,213.6,34,213.3,33.6z"/>
			<path class="st16" d="M225,25.5c0,0,2.1-2.8,6.1-2.8c3.6,0,6.1,2.9,6.1,6.3c0,3.9-3.4,8.6-12.2,12.6c-8.8-4-12.2-8.7-12.2-12.6
				c0-3.4,2.5-6.3,6.1-6.3C223,22.7,225,25.5,225,25.5z"/>
		</g>
	</g>
	<g>
		<path class="st17" d="M207.6,277l-31.4-4c-2-0.3-3.4-2.1-3.2-4.1l2.1-16.6c0.3-2,2.1-3.4,4.1-3.2l31.4,4c2,0.3,3.4,2.1,3.2,4.1
			l-2.1,16.6C211.4,275.8,209.6,277.2,207.6,277z"/>
		<path class="st3" d="M188.5,255.5l-0.9-1.9c-0.2-0.6-0.8-0.9-1.4-0.9h-14.5c-0.9,0-1.5,0.7-1.5,1.5v9.8h0v18.5
			c0,0.9,0.7,1.5,1.5,1.5h42.7c0.9,0,1.5-0.7,1.5-1.5V258c0-0.9-0.7-1.5-1.5-1.5h-24.6C189.3,256.4,188.7,256,188.5,255.5z"/>
		<path class="st1" d="M202.4,270.6c0,4.7-3.8,8.5-8.5,8.5c-4.7,0-8.5-3.8-8.5-8.5s3.8-8.5,8.5-8.5
			C198.6,262,202.4,265.9,202.4,270.6z"/>
		<polygon class="st11" points="200.5,268.2 196.2,268.2 196.2,264 191.5,264 191.5,268.2 187.2,268.2 187.2,273 191.5,273 
			191.5,277.3 196.2,277.3 196.2,273 200.5,273 		"/>
	</g>
	<g>
		<circle class="st11" cx="61.9" cy="186.3" r="4.2"/>
		
			<rect x="68.4" y="191.9" transform="matrix(-1 -1.224647e-16 1.224647e-16 -1 142.8969 389.6647)" class="st3" width="6.1" height="5.9"/>
		
			<rect x="69.3" y="198.1" transform="matrix(-1 -1.224647e-16 1.224647e-16 -1 142.897 397.9345)" class="st3" width="4.3" height="1.7"/>
		<path class="st3" d="M67.7,187c0-1.3-0.4-2.6-1.1-3.6v-4.1c1,0,1.8-0.8,1.8-1.8v-3.2h6.2v3.2c0,1,0.8,1.8,1.8,1.8v10.5
			c0,0.9-0.7,1.7-1.7,1.7h-6.4c-0.7,0-1.3-0.4-1.5-1C67.3,189.4,67.7,188.2,67.7,187z"/>
		
			<rect x="66.9" y="172.1" transform="matrix(-1 -1.224647e-16 1.224647e-16 -1 142.8969 346.3099)" class="st3" width="9.1" height="2.2"/>
		<path class="st3" d="M54.8,186.3c0,0.2,0,0.4,0,0.6c0,3.1,2.2,5.7,5.1,6.3c-0.9,0.6-1.6,1.5-2,2.6c-0.7,1.9-0.4,4,0.5,5.8
			c1,2.1,2.8,3.8,4.8,5l-0.8,2.7C51.8,206.4,47.3,194.6,54.8,186.3z"/>
		
			<rect x="57.5" y="206.7" transform="matrix(-1 -1.224647e-16 1.224647e-16 -1 123.8188 419.272)" class="st3" width="8.9" height="6"/>
		<path class="st3" d="M50,215.8h33v-0.2c0-1.7-1.3-3-3-3h-27c-1.7,0-3,1.3-3,3V215.8z"/>
		
			<rect x="63" y="201.9" transform="matrix(-1 -1.224647e-16 1.224647e-16 -1 142.9961 406.6911)" class="st3" width="17" height="3"/>
	</g>
	<path class="st1" d="M360.8,126.1c0,0-3.3,36.2,1.7,63.7c1.2,6.9,20.3,10,30.8,17.8c17.4,13.1,29.5,30.8,32.6,37.8
		c7.1-3.2,7-34.9,3.1-47.6C424.9,189.5,360.8,126.1,360.8,126.1z"/>
	<polygon class="st16" points="462.5,171.7 395.2,163.5 353,243.8 407.6,243.8 	"/>
	<path class="st18" d="M407.6,243.8l54.9-72.2l-67.3-8.1l-1.2,2.3c10.5,2.8,30.9,9.2,33.9,18.6c3.2,10-20.3,45-30.4,59.5H407.6z"/>
	<polygon class="st19" points="392.7,159.9 349.8,242.4 353,243.8 395.2,163.5 462.5,171.7 458.3,168.5 	"/>
	<g>
		<polygon class="st10" points="512.2,158.1 516,172.5 528.1,167.8 525.9,155 		"/>
		<g>
			<path class="st10" d="M458.1,125.5c-1-1.5-8.1-10.6-9.3-9.7c-1.2,0.8,3.2,7,3.8,7.9c0,0-2.5-0.2-3.7,2.6
				c-0.8,1.9,4.4,10.8,6.5,14.4c1.9-0.6,4.7-2.9,4.6-4.8C460,132.1,458.9,126.6,458.1,125.5z"/>
			<path class="st12" d="M522.8,155.7l-10.6,2.4l1.4,5.2c2.6-0.5,5.4-1.9,7.1-4.8C521.1,157.9,521.9,156.9,522.8,155.7z"/>
			<polygon class="st10" points="508.7,373.8 507.2,382.1 500.8,382.5 501.9,368.1 			"/>
			<path class="st2" d="M508.4,380.8c0,0-6,0.1-7.3-0.9c-1.3-1-2.7,1-4.8,3.7c-2.1,2.7-10,2.4-11,4.5c-0.7,1.6,22.8,1.1,24,1.1
				C510,389.1,508.4,380.8,508.4,380.8z"/>
			<polygon class="st10" points="526.3,372.5 524.9,380.8 518.4,381.2 519.5,366.8 			"/>
			<path class="st2" d="M526,379.5c0,0-6,0.1-7.3-0.9c-1.3-1-2.7,1-4.8,3.7c-2.1,2.7-9.6,3.1-10.7,5.2c-1.1,2.1,22.6,1.7,23.1,1.1
				C526.8,387.8,526,379.5,526,379.5z"/>
			<path class="st7" d="M512.6,260.3l0.7,59l4.6,57.4l8.6,1.5c0,0,7.2-101.4,14.6-112.6c7.4-11.2-1-29.7-1-29.7c0,0,0,0,0,0
				L512.6,260.3z"/>
			<path class="st2" d="M537,263.6c3.2-4.8,5.5-11.2,5-18.5c-0.2-2.4-4-5-4.4-7l-24.9,22.2l0.7,59l2.6,32
				c4.6-27.5,13.1-67.1,14.8-78.4C531.4,271.9,533.8,268.4,537,263.6z"/>
			<path class="st7" d="M502.7,232.8c0,0-4.4,53.9-4.7,71.9c-0.4,18.4,1.9,73.6,1.9,73.6l10.1,0c0,0,15.1-89.7,17.6-106.5
				c0,0-1.4,2.4,6-8.8c7.4-11.2,2-27,1.9-27c0,0-13.2,4.9-13.2,4.9L502.7,232.8z"/>
			<path class="st19" d="M548.4,206.6l-9.4,15.7l4.1,9.4c0,0,24.8-19.5,22.7-24.9c-1.8-4.5-26.6-31.1-33.3-38.5
				c-1.2-1.3-3.1-1.8-4.8-1.2l-11.5,4C516.2,171.1,549.4,203.2,548.4,206.6z"/>
			<g>
				<path class="st16" d="M506.1,166.9c0,0-3,75.8-10.5,91.1c0,0,34.3-5.1,50-5.1c0,0-0.4-64.2-8-78.4
					C530,160.4,513.5,163,506.1,166.9z"/>
			</g>
			<path class="st19" d="M523.4,194.9c7.3-3.9,9.7-9.3,9.8-16.2c0.1-5-16.6-2.4-27.7-1.7c-0.2,3.9-0.5,8.7-0.8,14
				C509,195.7,518.1,197.7,523.4,194.9z"/>
			<path class="st16" d="M467.4,170.1c0,0,23.7,20.4,42.7,19.6c18.9-0.8,21.4-5.3,23-10.4c1.6-5-9.2-12-20-14
				c-10.8-2.1-30.1-1.9-33.1-4.6c-3-2.7-18.2-23.3-19.5-26.9l-9.2,3.9L467.4,170.1z"/>
			<path class="st10" d="M517.2,134.6c0,0-3.2,1.6-5.9,5.6c-2.7,4.1-5.7,6.2-5.7,6.2l1.3,2.1c0,0-2.9,2.1-2.6,5.3
				c0.6,7.1,11.6,8.3,17,4.2c1.5-1.1,6.1-2.5,7.6-5C532.8,146.4,531.6,136,517.2,134.6z"/>
			<path class="st2" d="M522.5,149.8c0,0-3.6-6.7-1.9-11.5c0,0-4-0.1-7.2-1.9c-5.8-3.3,1.2-15.4,9.9-6.7c0,0-0.7-5.9,5.4-4.8
				c6.1,1,8.4,3.5,7.3,9.3c-1.1,5.8,1.4,3.2,3.3,6.6c1.9,3.4-8,15.6-12.6,16.1s-4.6,0.5-4.6,0.5s6.6-3.7,4.7-6.5
				C525,148.1,522.5,149.8,522.5,149.8z"/>
		</g>
	</g>
	<path class="st10" d="M380.5,216.1c1.2-1,11.5,5.4,17.4,9.2c0-0.1,0-0.2,0-0.2c-5.5-4.1-15.2-9-13-10.4c1.1-0.7,25.5,9.1,25.5,9.1
		c2.6,1.2,2.7,1.3,5.3,2.4c-0.6-1.5-7-11.9-2.7-11.4l14.2,18.6c2.4,4,2.3,6.4,1.7,8.4c-0.7,2.5-4.3,9.3-10.1,10.7
		c-5.6,1.3-20.8-7.2-23.1-9.5c-2.6-2.2-19.9-17.4-17.2-21.6c0,0,14.5,14.2,16,12.4c0.1-0.4-14.3-10-15.5-13.7
		c-0.8-2.7,11.8,5.5,17.3,9.6C391.5,225.6,379.7,216.8,380.5,216.1z"/>
	<g>
		<path class="st7" d="M96.4,388.9h-4.5c-20.8,0-37.7-16.9-37.7-37.7v-73.2c0-20.8,16.9-37.7,37.7-37.7h4.5
			c20.8,0,37.7,16.9,37.7,37.7v73.2C134.1,372,117.2,388.9,96.4,388.9z"/>
		<path class="st7" d="M116.5,240.1h-2.3c9.8,0,17.7,7.9,17.7,17.7v113.4c0,9.8-7.9,17.7-17.7,17.7h2.3c9.8,0,17.7-7.9,17.7-17.7
			V257.8C134.1,248,126.2,240.1,116.5,240.1z"/>
		<path class="st5" d="M56.4,351v-73c0-19.7,15.9-35.6,35.6-35.6h4.2c19.7,0,35.6,15.9,35.6,35.6v73c0,19.7-15.9,35.6-35.6,35.6H92
			C72.4,386.6,56.4,370.7,56.4,351z"/>
		<g>
			<path class="st20" d="M102.3,250.3h-15c-0.5,0-0.8-0.4-0.8-0.8c0-0.5,0.4-0.8,0.8-0.8h15c0.5,0,0.8,0.4,0.8,0.8
				C103.1,249.9,102.8,250.3,102.3,250.3z"/>
		</g>
		<g>
			<path class="st20" d="M103.8,255.8H85.7c-0.5,0-0.9-0.4-0.9-0.9c0-0.5,0.4-0.9,0.9-0.9h18.1c0.5,0,0.9,0.4,0.9,0.9
				C104.7,255.4,104.3,255.8,103.8,255.8z"/>
		</g>
		<path class="st20" d="M80.7,254.9c0,0.7-0.6,1.2-1.2,1.2c-0.7,0-1.2-0.6-1.2-1.2c0-0.7,0.6-1.2,1.2-1.2
			C80.2,253.7,80.7,254.2,80.7,254.9z"/>
		<circle class="st4" cx="94.1" cy="376.9" r="6.8"/>
		<circle class="st1" cx="93" cy="376.9" r="6.8"/>
		<path class="st4" d="M116.2,366.2H71.8c-6.2,0-11.2-5-11.2-11.2v-76.6c0-6.2,5-11.2,11.2-11.2h44.4c6.2,0,11.2,5,11.2,11.2V355
			C127.4,361.2,122.4,366.2,116.2,366.2z"/>
		<path class="st21" d="M62.1,358.3v-83.2c0-3.4,2.7-6.1,6.1-6.1h51.5c3.4,0,6.1,2.7,6.1,6.1v83.2c0,3.4-2.7,6.1-6.1,6.1H68.3
			C64.9,364.4,62.1,361.7,62.1,358.3z"/>
		<path class="st6" d="M124,268.9H64c-1,0-1.8,1-1.8,2.1v13.8h63.7v-13.8C125.9,269.9,125,268.9,124,268.9z"/>
		<g>
			<rect x="77" y="287.8" class="st11" width="36.2" height="2.4"/>
		</g>
		<polygon class="st11" points="68.5,289.1 71.9,291.4 71.9,286.7 		"/>
		<polygon class="st11" points="119.3,289.1 115.9,291.4 115.9,286.7 		"/>
		<path class="st11" d="M82.2,280.5H67.6c-1.9,0-3.5-1.6-3.5-3.5v-0.4c0-1.9,1.6-3.5,3.5-3.5h14.6c1.9,0,3.5,1.6,3.5,3.5v0.4
			C85.7,278.9,84.2,280.5,82.2,280.5z"/>
		<path class="st11" d="M119.5,280.5h-0.4c-1.8,0-3.2-1.4-3.2-3.2v-1c0-1.8,1.4-3.2,3.2-3.2h0.4c1.8,0,3.2,1.4,3.2,3.2v1
			C122.7,279,121.3,280.5,119.5,280.5z"/>
		<rect x="118.7" y="274.2" class="st21" width="1.1" height="4.8"/>
		
			<rect x="118.6" y="274.6" transform="matrix(6.123234e-17 -1 1 6.123234e-17 -157.3743 395.928)" class="st21" width="1.3" height="4.1"/>
		<rect x="65.3" y="300.1" class="st22" width="7" height="60.9"/>
		<rect x="73.8" y="300.1" class="st22" width="7" height="60.9"/>
		<rect x="82.3" y="300.1" class="st22" width="7" height="60.9"/>
		<rect x="90.8" y="300.1" class="st22" width="7" height="60.9"/>
		<rect x="99.3" y="300.1" class="st22" width="7" height="60.9"/>
		<rect x="107.9" y="300.1" class="st22" width="7" height="60.9"/>
		<rect x="116.4" y="300.1" class="st22" width="7" height="60.9"/>
		<rect x="65.3" y="293.1" class="st4" width="7" height="4.6"/>
		<rect x="73.8" y="293.1" class="st4" width="7" height="4.6"/>
		<rect x="82.3" y="293.1" class="st4" width="7" height="4.6"/>
		<rect x="90.8" y="293.1" class="st4" width="7" height="4.6"/>
		<rect x="99.3" y="293.1" class="st4" width="7" height="4.6"/>
		<rect x="107.9" y="293.1" class="st16" width="7" height="4.6"/>
		<rect x="116.4" y="293.1" class="st16" width="7" height="4.6"/>
		<rect x="64.1" y="307.1" class="st21" width="60" height="1.5"/>
		<rect x="64.1" y="316.2" class="st21" width="60" height="1.5"/>
		<rect x="64.1" y="325.3" class="st21" width="60" height="1.5"/>
		<rect x="64.1" y="334.4" class="st21" width="60" height="1.5"/>
		<rect x="64.1" y="343.5" class="st21" width="60" height="1.5"/>
		<rect x="64" y="352.6" class="st21" width="60" height="1.5"/>
		<path class="st16" d="M93.2,318.3l-5.8-2.5c0.2,0.3,7.4,9.1,7.2,8.9c1.5-3.3,4.7-10.5,6.2-13.9L93.2,318.3z"/>
	</g>
</g>
</svg>
